<svg width="1740" height="749" viewBox="0 0 1740 749" fill="none" xmlns="http://www.w3.org/2000/svg">
<path d="M657.35 720V682.6H661.2C674.767 682.6 686.133 679.667 695.3 673.8C704.467 667.933 711.433 657.85 716.2 643.55C720.967 629.617 723.35 610.367 723.35 585.8V360.85C723.35 350.217 721.333 342.333 717.3 337.2C713.267 332.067 707.95 328.767 701.35 327.3C695.117 325.467 687.967 324.55 679.9 324.55H678.25V293.2H819.6V592.4C819.6 625.033 813.183 650.7 800.35 669.4C787.517 688.1 769.733 701.117 747 708.45C724.267 716.15 698.417 720 669.45 720H657.35ZM769.55 245.9C754.517 245.9 741.867 242.417 731.6 235.45C721.333 228.483 716.2 218.033 716.2 204.1C716.2 189.433 721.333 178.8 731.6 172.2C741.867 165.6 754.517 162.3 769.55 162.3C783.85 162.3 796.317 165.6 806.95 172.2C817.583 178.8 822.9 189.433 822.9 204.1C822.9 218.033 817.583 228.483 806.95 235.45C796.317 242.417 783.85 245.9 769.55 245.9ZM1043.05 593.5C1016.29 593.5 995.021 587.083 979.255 574.25C963.488 561.05 955.605 538.317 955.605 506.05V332.8H914.905V302.55C928.838 302.55 940.571 299.8 950.105 294.3C960.005 288.8 967.705 283.117 973.205 277.25C978.338 271.75 983.105 264.6 987.505 255.8C992.271 247 995.938 236.55 998.505 224.45H1052.4V293.2H1121.7V332.8H1052.4V497.25C1052.4 513.017 1054.79 524.567 1059.55 531.9C1064.32 538.867 1073.3 542.35 1086.5 542.35C1093.84 542.35 1100.8 541.983 1107.4 541.25C1114.37 540.15 1120.79 538.867 1126.65 537.4V577.55C1120.42 580.483 1110.15 583.967 1095.85 588C1081.55 591.667 1063.95 593.5 1043.05 593.5ZM1305.28 593.5C1281.45 593.5 1261.1 588.183 1244.23 577.55C1227.73 566.917 1215.08 550.417 1206.28 528.05C1197.48 505.317 1193.08 476.35 1193.08 441.15C1193.08 405.583 1197.48 376.433 1206.28 353.7C1215.08 330.967 1227.73 314.1 1244.23 303.1C1260.73 291.733 1280.53 286.05 1303.63 286.05C1324.17 286.05 1340.67 289.9 1353.13 297.6C1365.6 305.3 1375.68 314.833 1383.38 326.2H1386.68C1386.32 320.333 1385.77 313.733 1385.03 306.4C1384.67 298.7 1384.3 291 1383.93 283.3C1383.93 275.233 1383.93 268.083 1383.93 261.85V234.35C1383.93 224.45 1381.92 217.3 1377.88 212.9C1373.85 208.133 1368.53 205.017 1361.93 203.55C1355.33 202.083 1348 201.35 1339.93 201.35H1335.53V170H1480.73V514.3C1480.73 525.667 1482.38 534.467 1485.68 540.7C1489.35 546.567 1494.3 550.783 1500.53 553.35C1507.13 555.55 1514.65 556.65 1523.08 556.65H1526.38V588H1411.98L1394.38 547.85H1390.53C1382.47 561.783 1371.65 572.967 1358.08 581.4C1344.52 589.467 1326.92 593.5 1305.28 593.5ZM1334.98 550.05C1353.68 550.05 1366.52 541.067 1373.48 523.1C1380.45 504.767 1383.93 476.9 1383.93 439.5C1383.93 415.667 1382.47 395.683 1379.53 379.55C1376.6 363.05 1371.65 350.583 1364.68 342.15C1357.72 333.35 1347.82 328.95 1334.98 328.95C1324.35 328.95 1315.73 333.35 1309.13 342.15C1302.9 350.583 1298.13 363.05 1294.83 379.55C1291.9 396.05 1290.43 416.4 1290.43 440.6C1290.43 464.8 1291.9 485.15 1294.83 501.65C1297.77 517.783 1302.53 529.883 1309.13 537.95C1315.73 546.017 1324.35 550.05 1334.98 550.05Z" fill="#333333"/>
<path d="M1653.48 592.95C1639.91 592.95 1628.18 589.467 1618.28 582.5C1608.75 575.533 1603.98 563.433 1603.98 546.2C1603.98 528.233 1608.75 515.95 1618.28 509.35C1628.18 502.75 1639.91 499.45 1653.48 499.45C1666.68 499.45 1678.05 502.75 1687.58 509.35C1697.48 515.95 1702.43 528.233 1702.43 546.2C1702.43 563.433 1697.48 575.533 1687.58 582.5C1678.05 589.467 1666.68 592.95 1653.48 592.95Z" fill="#152B7F"/>
<circle cx="345" cy="380" r="176" fill="#37AEF2" fill-opacity="0.8"/>
<circle cx="225" cy="514" r="225" fill="#0095FF" fill-opacity="0.9"/>
<path fill-rule="evenodd" clip-rule="evenodd" d="M192.975 291.262C203.436 289.771 214.128 289 225 289C349.264 289 450 389.736 450 514C450 516.459 449.961 518.909 449.882 521.349C420.591 543.119 384.3 556 345 556C247.798 556 169 477.202 169 380C169 347.638 177.735 317.315 192.975 291.262Z" fill="#152B7F"/>
</svg>
