<svg width="107" height="43" viewBox="0 0 107 43" fill="none" xmlns="http://www.w3.org/2000/svg">
<path d="M44.1569 40.9209V38.8183H44.3733C45.136 38.8183 45.775 38.6534 46.2904 38.3236C46.8057 37.9937 47.1974 37.4269 47.4653 36.6229C47.7333 35.8396 47.8673 34.7574 47.8673 33.3763V20.7299C47.8673 20.1321 47.7539 19.689 47.5272 19.4004C47.3004 19.1118 47.0015 18.9263 46.6305 18.8438C46.2801 18.7407 45.8781 18.6892 45.4246 18.6892H45.3318V16.9267H53.2783V33.7474C53.2783 35.582 52.9176 37.0249 52.1961 38.0762C51.4747 39.1275 50.4749 39.8593 49.1969 40.2715C47.9188 40.7044 46.4656 40.9209 44.8371 40.9209H44.1569ZM50.4646 14.2676C49.6195 14.2676 48.9083 14.0718 48.3311 13.6801C47.7539 13.2885 47.4653 12.701 47.4653 11.9177C47.4653 11.0931 47.7539 10.4953 48.3311 10.1243C48.9083 9.75325 49.6195 9.56773 50.4646 9.56773C51.2685 9.56773 51.9694 9.75325 52.5672 10.1243C53.165 10.4953 53.4639 11.0931 53.4639 11.9177C53.4639 12.701 53.165 13.2885 52.5672 13.6801C51.9694 14.0718 51.2685 14.2676 50.4646 14.2676ZM66.4591 33.8092C64.9543 33.8092 63.7587 33.4485 62.8723 32.727C61.9859 31.9849 61.5428 30.7069 61.5428 28.8929V19.153H59.2547V17.4524C60.038 17.4524 60.6976 17.2978 61.2335 16.9886C61.7901 16.6794 62.223 16.3599 62.5322 16.0301C62.8208 15.7209 63.0888 15.3189 63.3361 14.8242C63.6041 14.3294 63.8102 13.742 63.9545 13.0617H66.9847V16.9267H70.8807V19.153H66.9847V28.3982C66.9847 29.2845 67.1187 29.9339 67.3867 30.3461C67.6547 30.7378 68.1597 30.9336 68.9018 30.9336C69.314 30.9336 69.7057 30.913 70.0767 30.8718C70.4684 30.8099 70.8291 30.7378 71.1589 30.6553V32.9125C70.8085 33.0774 70.2313 33.2733 69.4274 33.5C68.6235 33.7061 67.634 33.8092 66.4591 33.8092ZM81.8197 33.8092C80.4798 33.8092 79.3357 33.5103 78.3875 32.9125C77.4599 32.3147 76.7487 31.3871 76.254 30.1297C75.7593 28.8517 75.5119 27.2232 75.5119 25.2443C75.5119 23.2448 75.7593 21.606 76.254 20.328C76.7487 19.0499 77.4599 18.1017 78.3875 17.4833C79.3151 16.8443 80.4283 16.5248 81.7269 16.5248C82.8813 16.5248 83.8089 16.7412 84.5097 17.1741C85.2106 17.607 85.7775 18.1429 86.2103 18.782H86.3959C86.3753 18.4521 86.3443 18.0811 86.3031 17.6688C86.2825 17.236 86.2619 16.8031 86.2413 16.3702C86.2413 15.9167 86.2413 15.5147 86.2413 15.1643V13.6183C86.2413 13.0617 86.1279 12.6598 85.9011 12.4124C85.6744 12.1444 85.3755 11.9692 85.0045 11.8867C84.6334 11.8043 84.2211 11.7631 83.7676 11.7631H83.5203V10.0006H91.6832V29.3567C91.6832 29.9957 91.776 30.4904 91.9615 30.8409C92.1676 31.1707 92.4459 31.4077 92.7964 31.552C93.1674 31.6757 93.59 31.7375 94.0641 31.7375H94.2496V33.5H87.8182L86.8287 31.2428H86.6123C86.1588 32.0261 85.5507 32.6548 84.788 33.129C84.0253 33.5825 83.0359 33.8092 81.8197 33.8092ZM83.4894 31.3665C84.5406 31.3665 85.2621 30.8615 85.6538 29.8514C86.0454 28.8207 86.2413 27.2541 86.2413 25.1515C86.2413 23.8117 86.1588 22.6882 85.9939 21.7812C85.829 20.8536 85.5507 20.1528 85.1591 19.6787C84.7674 19.1839 84.2108 18.9366 83.4894 18.9366C82.8916 18.9366 82.4072 19.1839 82.0361 19.6787C81.6857 20.1528 81.4177 20.8536 81.2322 21.7812C81.0673 22.7088 80.9848 23.8529 80.9848 25.2134C80.9848 26.5739 81.0673 27.7179 81.2322 28.6455C81.3971 29.5525 81.6651 30.2328 82.0361 30.6863C82.4072 31.1398 82.8916 31.3665 83.4894 31.3665Z" fill="#333333"/>
<path d="M102.013 33.7783C101.251 33.7783 100.591 33.5825 100.034 33.1908C99.4984 32.7991 99.2304 32.1189 99.2304 31.1501C99.2304 30.14 99.4984 29.4494 100.034 29.0784C100.591 28.7074 101.251 28.5218 102.013 28.5218C102.755 28.5218 103.394 28.7074 103.93 29.0784C104.487 29.4494 104.765 30.14 104.765 31.1501C104.765 32.1189 104.487 32.7991 103.93 33.1908C103.394 33.5825 102.755 33.7783 102.013 33.7783Z" fill="#152B7F"/>
<circle cx="16.6693" cy="24.1915" r="16.6356" fill="#4DB5FF" fill-opacity="0.9"/>
<path d="M39.3672 15.4643C39.3672 22.7327 33.475 28.6249 26.2066 28.6249C18.9382 28.6249 13.046 22.7327 13.046 15.4643C13.046 8.1959 18.9382 2.30371 26.2066 2.30371C33.475 2.30371 39.3672 8.1959 39.3672 15.4643Z" fill="#44B3F3" fill-opacity="0.8"/>
<path fill-rule="evenodd" clip-rule="evenodd" d="M15.7925 7.50633C16.1252 7.4865 16.4605 7.47644 16.7981 7.47644C25.9857 7.47644 33.4337 14.9244 33.4337 24.112C33.4337 24.9519 33.3714 25.7773 33.2513 26.5838C31.2417 27.8275 28.8724 28.5453 26.3354 28.5453C19.067 28.5453 13.1748 22.6531 13.1748 15.3848C13.1748 12.4301 14.1485 9.70281 15.7925 7.50633Z" fill="#152B7F"/>
</svg>
